<?xml version="1.0" encoding="UTF-8"?>
<svg width="18px" height="17px" viewBox="0 0 18 17" version="1.1" xmlns="http://www.w3.org/2000/svg" xmlns:xlink="http://www.w3.org/1999/xlink">
    <!-- Generator: Sketch 52.1 (67048) - http://www.bohemiancoding.com/sketch -->
    <title>LeftArrow</title>
    <desc>Created with Sketch.</desc>
    <g id="Page-1" stroke="none" stroke-width="1" fill="none" fill-rule="evenodd">
        <g id="LeftArrow" fill="#606161">
            <path d="M10.55,11.25 C10.4663871,11.2492121 10.3841469,11.2286521 10.31,11.19 L6.21,9 C6.0482884,8.91271733 5.94748684,8.74376318 5.94748684,8.56 C5.94748684,8.37623682 6.0482884,8.20728267 6.21,8.12 L10.31,5.83 C10.5481245,5.69072797 10.8538296,5.7660466 11,6 C11.063979,6.11662807 11.0788458,6.25394326 11.0413109,6.38156202 C11.0037759,6.50918077 10.9169338,6.61658157 10.8,6.68 L7.5,8.52 L10.8,10.3 C10.9224283,10.3632839 11.0133069,10.4742947 11.0511682,10.6068091 C11.0890294,10.7393235 11.0705156,10.8815893 11,11 C10.9093807,11.1617607 10.7352184,11.2585176 10.55,11.25 Z" id="Path"></path>
            <path d="M9,17 C4.30557963,17 0.5,13.1944204 0.5,8.5 C0.5,3.80557963 4.30557963,0 9,0 C13.6944204,0 17.5,3.80557963 17.5,8.5 C17.4944896,13.192136 13.692136,16.9944896 9,17 Z M9,1 C4.85786438,1 1.5,4.35786438 1.5,8.5 C1.5,12.6421356 4.85786438,16 9,16 C13.1421356,16 16.5,12.6421356 16.5,8.5 C16.5,4.35786438 13.1421356,1 9,1 Z" id="Shape" fill-rule="nonzero"></path>
        </g>
    </g>
</svg>