<svg height="224" viewBox="0 0 224 224" width="224" xmlns="http://www.w3.org/2000/svg"><path d="m112 213.571964c1.317295-1.276061 2.708008-2.625574 4.160033-4.037279 7.02331-6.828288 14.046038-13.71522 20.596566-20.221931.513018-.509586 1.021534-1.015257 1.525398-1.516872 3.622024-3.605856 6.979394-6.977907 10.023839-10.070961.915322-.930583 10.429366-10.318174 13.987757-13.942556 6.876951-7.004485 13.011287-13.675243 18.816565-20.618394 22.422832-26.817858 35.389842-52.3971312 35.389842-76.0250064 0-33.080282-24.367591-59.6389646-54.1-59.6389646-12.43554 0-23.404975 4.2013613-32.873438 11.2672044-3.342367 2.4942429-6.245617 5.1679433-8.681803 7.8263671-.837965.9144062-1.552028 1.7532687-2.139261 2.4915874-.194951.2451077-.357368.4559509-.486919.6293905-.062696.0839367-.091995.1243446-.087582.1180801l-6.130997 8.7015438-6.130997-8.7015438c.004413.0062645-.024886-.0341434-.087582-.1180801-.129551-.1734396-.291968-.3842828-.486919-.6293905-.587233-.7383187-1.301296-1.5771812-2.139261-2.4915874-2.436186-2.6584238-5.3394359-5.3321242-8.6818034-7.8263671-9.4684621-7.0658431-20.4378974-11.2672044-32.8734376-11.2672044-29.7324087 0-54.1 26.5586826-54.1 59.6389646 0 23.6278752 12.96701 49.2071484 35.3898423 76.0250064 5.8052774 6.943151 11.9396139 13.613909 18.8165646 20.618394 3.5583916 3.624382 13.0724353 13.011973 13.9859297 13.940698 3.0462723 3.094912 6.4036426 6.466963 10.0256663 10.072819.5038643.501615 1.01238 1.007286 1.5253977 1.516872 6.5505286 6.506711 13.5732564 13.393643 20.5965664 20.221931 1.452025 1.411705 2.842738 2.761218 4.160033 4.037279z" fill="none" stroke="#fff" stroke-width="15"/></svg>