<?xml version="1.0" encoding="UTF-8"?>
<svg width="18px" height="18px" viewBox="0 0 18 18" version="1.1" xmlns="http://www.w3.org/2000/svg" xmlns:xlink="http://www.w3.org/1999/xlink">
    <!-- Generator: Sketch 52.1 (67048) - http://www.bohemiancoding.com/sketch -->
    <title>RightArrow</title>
    <desc>Created with Sketch.</desc>
    <g id="Page-1" stroke="none" stroke-width="1" fill="none" fill-rule="evenodd">
        <g id="RightArrow" fill="#606161">
            <path d="M7.45,12.25 C7.2647816,12.2585176 7.09061935,12.1617607 7,12 C6.93602102,11.8833719 6.92115422,11.7460567 6.95868915,11.618438 C6.99622407,11.4908192 7.08306617,11.3834184 7.2,11.32 L10.5,9.48 L7.2,7.7 C6.95699471,7.56745166 6.86745166,7.26300529 7,7.02 C7.13254834,6.77699471 7.43699471,6.68745166 7.68,6.82 L11.79,9 C11.9517116,9.08728267 12.0525132,9.25623682 12.0525132,9.44 C12.0525132,9.62376318 11.9517116,9.79271733 11.79,9.88 L7.69,12.17 C7.61763048,12.2156486 7.53528479,12.2430972 7.45,12.25 Z" id="Path"></path>
            <path d="M9.17,17.83 C4.47557963,17.83 0.67,14.0244204 0.67,9.33 C0.67,4.63557963 4.47557963,0.83 9.17,0.83 C13.8644204,0.83 17.67,4.63557963 17.67,9.33 C17.6644896,14.022136 13.862136,17.8244896 9.17,17.83 Z M9.17,1.83 C5.02786438,1.83 1.67,5.18786438 1.67,9.33 C1.67,13.4721356 5.02786438,16.83 9.17,16.83 C13.3121356,16.83 16.67,13.4721356 16.67,9.33 C16.6644912,5.19014834 13.3098517,1.83550879 9.17,1.83 Z" id="Shape" fill-rule="nonzero"></path>
        </g>
    </g>
</svg>