<?xml version="1.0"?>
<svg xmlns="http://www.w3.org/2000/svg" xmlns:xlink="http://www.w3.org/1999/xlink" version="1.1" viewBox="0 0 224 224" width="32px" height="32px"><g fill="none" fill-rule="nonzero" stroke="none" stroke-width="1" stroke-linecap="butt" stroke-linejoin="miter" stroke-miterlimit="10" stroke-dasharray="" stroke-dashoffset="0" font-family="none" font-weight="none" font-size="none" text-anchor="none" style="mix-blend-mode: normal"><path d="M0,224v-224h224v224z" fill="none"/><g fill="#767676"><g id="surface1"><path d="M56,35c-11.51172,0 -21,9.48828 -21,21v112c0,11.51172 9.48828,21 21,21h112c11.51172,0 21,-9.48828 21,-21v-112c0,-11.51172 -9.48828,-21 -21,-21zM147,56h21v21h-21zM112,84c15.55859,0 28,12.44141 28,28c0,15.55859 -12.44141,28 -28,28c-15.55859,0 -28,-12.44141 -28,-28c0,-15.55859 12.44141,-28 28,-28zM49,98h23.40625c-1.55859,4.375 -2.40625,9.10547 -2.40625,14c0,23.10547 18.89453,42 42,42c23.10547,0 42,-18.89453 42,-42c0,-4.89453 -0.84766,-9.625 -2.40625,-14h23.40625v70c0,3.96484 -3.03516,7 -7,7h-112c-3.96484,0 -7,-3.03516 -7,-7z"/></g></g></g></svg>
