<?xml version="1.0"?>
<svg xmlns="http://www.w3.org/2000/svg" xmlns:xlink="http://www.w3.org/1999/xlink" version="1.1" viewBox="0 0 224 224" width="32px" height="32px"><g fill="none" fill-rule="nonzero" stroke="none" stroke-width="1" stroke-linecap="butt" stroke-linejoin="miter" stroke-miterlimit="10" stroke-dasharray="" stroke-dashoffset="0" font-family="none" font-weight="none" font-size="none" text-anchor="none" style="mix-blend-mode: normal"><path d="M0,224v-224h224v224z" fill="none"/><g fill="#767676"><path d="M205.33333,37.324c-7.28,4.32133 -21.88667,10.21067 -30.47333,11.90933c-0.252,0.06533 -0.45733,0.14933 -0.7,0.21467c-7.588,-7.48533 -17.98533,-12.124 -29.49333,-12.124c-23.19333,0 -42,18.80667 -42,42c0,1.22267 -0.10267,3.472 0,4.66667c-31.29467,0 -55.11333,-16.38933 -72.19333,-37.33333c-1.85733,4.66667 -2.66933,12.04 -2.66933,18.96533c0,13.076 10.22,25.91867 26.13333,33.88c-2.93067,0.756 -6.16,1.29733 -9.52,1.29733c-5.42267,0 -11.16267,-1.428 -16.41733,-5.75867c0,0.15867 0,0.308 0,0.476c0,18.27467 19.39467,30.716 36.64267,34.17867c-3.5,2.06267 -10.556,2.268 -14,2.268c-2.42667,0 -11.01333,-1.11067 -13.30933,-1.54c4.79733,14.98 22.10133,23.39867 38.59333,23.69733c-12.89867,10.11733 -21.84933,13.86933 -48.26267,13.86933h-8.99733c16.688,10.696 37.94,18.676 59.23867,18.676c69.34667,0 108.76133,-52.85467 108.76133,-102.676c0,-0.80267 -0.01867,-2.48267 -0.04667,-4.172c0,-0.168 0.04667,-0.32667 0.04667,-0.49467c0,-0.252 -0.07467,-0.49467 -0.07467,-0.74667c-0.028,-1.26933 -0.056,-2.45467 -0.084,-3.07067c7.37333,-5.32 13.76667,-11.956 18.82533,-19.516c-6.76667,3.00533 -14.028,5.02133 -21.65333,5.936c7.784,-4.66667 18.844,-15.792 21.65333,-24.60267z"/></g></g></svg>
