<svg id="Layer_1" data-name="Layer 1" xmlns="http://www.w3.org/2000/svg" viewBox="0 0 48 48"><defs><style>.cls-1,.cls-2{fill:#ef4c39;}.cls-1{opacity:0.3;}</style></defs><title>Artboard 1</title><path class="cls-1" d="M40.22,33.53l-2.91-1a.31.31,0,0,0-.13,0h-4a.31.31,0,0,0-.13,0l-1.8.6A1.49,1.49,0,0,1,30,33a1.47,1.47,0,0,1-.62-1.2V31a1.53,1.53,0,0,1,0-.3l.82-4.1a.39.39,0,0,0-.08-.34.43.43,0,0,0-.33-.16H27.62a1.49,1.49,0,0,1-1.49-1.48v-2.1a.32.32,0,0,0,0-.13l-.7-2.09a.39.39,0,0,0-.22-.25.42.42,0,0,0-.33,0L21.05,21.6a1.5,1.5,0,0,1-1.6-.33l-1.14-1.14a1.49,1.49,0,0,1-.19-1.87l1.42-2.13a1.48,1.48,0,0,1,1.24-.66h6.56a1.47,1.47,0,0,1,1.05.43L31,18.54a.43.43,0,0,0,.3.13h.79a.41.41,0,0,0,.41-.42V12a1.49,1.49,0,0,1,.25-.82l1.54-2.31a.42.42,0,0,0,0-.53L33.16,7.24a1.47,1.47,0,0,1-.3-1.66l1-2.24A22.78,22.78,0,0,0,6.72,9L8,13.61A1.58,1.58,0,0,1,8,14v1.5a.42.42,0,0,0,.19.35l.86.58a.44.44,0,0,0,.47,0A.43.43,0,0,0,9.69,16a1.49,1.49,0,0,1,2.51-1.35l.7.7a1.48,1.48,0,0,1,.43,1.05V20a.41.41,0,0,0,.05.19l1.77,3.54a.41.41,0,0,0,.37.23h8.06a1.49,1.49,0,0,1,1.49,1.48v1.86a.42.42,0,0,0,.12.3l.51.5a.41.41,0,0,0,.29.13h.79a1.49,1.49,0,0,1,1.49,1.48v2.37a1.49,1.49,0,0,1-1.49,1.48H21a.4.4,0,0,0-.39.29l-1.87,5.6a.3.3,0,0,0,0,.13v2.46a.41.41,0,0,0,.23.37l3.6,1.8a1.84,1.84,0,0,1,.39.28l2.35,2.34a22.9,22.9,0,0,0,18.3-10.93l-3.2-2.35Z"/><path class="cls-2" d="M24,0A24,24,0,1,0,48,24,24,24,0,0,0,24,0ZM1.07,24A22.8,22.8,0,0,1,5.89,10l1,3.9v1.61a1.5,1.5,0,0,0,.66,1.24l.87.57a1.48,1.48,0,0,0,2.28-1.52.42.42,0,0,1,.7-.38l.7.7a.41.41,0,0,1,.13.29V20a1.56,1.56,0,0,0,.15.67l1.77,3.54a1.51,1.51,0,0,0,1.33.82h8.06a.41.41,0,0,1,.42.41v1.86a1.47,1.47,0,0,0,.43,1.05l.51.51a1.48,1.48,0,0,0,1,.43h.79a.42.42,0,0,1,.42.42v2.37a.41.41,0,0,1-.42.41H21a1.49,1.49,0,0,0-1.41,1l-1.86,5.6a1.55,1.55,0,0,0-.08.47v2.46a1.49,1.49,0,0,0,.82,1.33l3.6,1.8a.28.28,0,0,1,.11.08l1.65,1.63A23,23,0,0,1,1.07,24ZM25.24,46.87l-2.35-2.34a1.84,1.84,0,0,0-.39-.28l-3.6-1.8a.41.41,0,0,1-.23-.37V39.62a.3.3,0,0,1,0-.13l1.87-5.6A.4.4,0,0,1,21,33.6h5.83a1.49,1.49,0,0,0,1.49-1.48V29.75a1.49,1.49,0,0,0-1.49-1.48H26a.41.41,0,0,1-.29-.13l-.51-.5a.42.42,0,0,1-.12-.3V25.48A1.49,1.49,0,0,0,23.58,24H15.52a.41.41,0,0,1-.37-.23l-1.77-3.54a.41.41,0,0,1-.05-.19V16.39a1.48,1.48,0,0,0-.43-1.05l-.7-.7A1.49,1.49,0,0,0,9.69,16a.43.43,0,0,1-.17.43.44.44,0,0,1-.47,0l-.86-.58A.42.42,0,0,1,8,15.49V14a1.58,1.58,0,0,0,0-.38L6.72,9A22.78,22.78,0,0,1,33.88,3.34l-1,2.24a1.47,1.47,0,0,0,.3,1.66l1.11,1.12a.42.42,0,0,1,0,.53L32.78,11.2a1.49,1.49,0,0,0-.25.82v6.23a.41.41,0,0,1-.41.42h-.79a.43.43,0,0,1-.3-.13L28.39,15.9a1.47,1.47,0,0,0-1.05-.43H20.78a1.48,1.48,0,0,0-1.24.66l-1.42,2.13a1.49,1.49,0,0,0,.19,1.87l1.14,1.14a1.5,1.5,0,0,0,1.6.33l3.81-1.53a.42.42,0,0,1,.33,0,.39.39,0,0,1,.22.25l.7,2.09a.32.32,0,0,1,0,.13v2.1a1.49,1.49,0,0,0,1.49,1.48h2.15a.43.43,0,0,1,.33.16.39.39,0,0,1,.08.34l-.82,4.1a1.53,1.53,0,0,0,0,.3v.72A1.47,1.47,0,0,0,30,33a1.49,1.49,0,0,0,1.34.21l1.8-.6a.31.31,0,0,1,.13,0h4a.31.31,0,0,1,.13,0l2.91,1,.12.06,3.2,2.35A22.9,22.9,0,0,1,25.24,46.87ZM44.1,35,41,32.72a1.59,1.59,0,0,0-.41-.21l-2.91-1a1.53,1.53,0,0,0-.47-.07h-4a1.53,1.53,0,0,0-.47.07l-1.8.6a.46.46,0,0,1-.38,0,.42.42,0,0,1-.17-.34v-.81l.82-4.1a1.48,1.48,0,0,0-.31-1.23,1.46,1.46,0,0,0-1.15-.54H27.62a.42.42,0,0,1-.42-.42v-2.1a1.55,1.55,0,0,0-.08-.47L26.42,20a1.45,1.45,0,0,0-.78-.88,1.49,1.49,0,0,0-1.17,0l-3.82,1.53a.42.42,0,0,1-.45-.1l-1.14-1.14a.41.41,0,0,1,0-.52l1.42-2.13a.42.42,0,0,1,.35-.19h6.56a.43.43,0,0,1,.3.13l2.64,2.64a1.47,1.47,0,0,0,1,.43h.79a1.48,1.48,0,0,0,1.48-1.48V12a.39.39,0,0,1,.07-.23l1.54-2.31A1.51,1.51,0,0,0,35,7.6L33.91,6.49A.41.41,0,0,1,33.83,6l1-2.22A22.91,22.91,0,0,1,44.1,35Z"/><path class="cls-1" d="M24,0A24,24,0,1,0,48,24,24,24,0,0,0,24,0ZM1.07,24A22.8,22.8,0,0,1,5.89,10l1,3.9v1.61a1.5,1.5,0,0,0,.66,1.24l.87.57a1.48,1.48,0,0,0,2.28-1.52.42.42,0,0,1,.7-.38l.7.7a.41.41,0,0,1,.13.29V20a1.56,1.56,0,0,0,.15.67l1.77,3.54a1.51,1.51,0,0,0,1.33.82h8.06a.41.41,0,0,1,.42.41v1.86a1.47,1.47,0,0,0,.43,1.05l.51.51a1.48,1.48,0,0,0,1,.43h.79a.42.42,0,0,1,.42.42v2.37a.41.41,0,0,1-.42.41H21a1.49,1.49,0,0,0-1.41,1l-1.86,5.6a1.55,1.55,0,0,0-.08.47v2.46a1.49,1.49,0,0,0,.82,1.33l3.6,1.8a.28.28,0,0,1,.11.08l1.65,1.63A23,23,0,0,1,1.07,24ZM25.24,46.87l-2.35-2.34a1.84,1.84,0,0,0-.39-.28l-3.6-1.8a.41.41,0,0,1-.23-.37V39.62a.3.3,0,0,1,0-.13l1.87-5.6A.4.4,0,0,1,21,33.6h5.83a1.49,1.49,0,0,0,1.49-1.48V29.75a1.49,1.49,0,0,0-1.49-1.48H26a.41.41,0,0,1-.29-.13l-.51-.5a.42.42,0,0,1-.12-.3V25.48A1.49,1.49,0,0,0,23.58,24H15.52a.41.41,0,0,1-.37-.23l-1.77-3.54a.41.41,0,0,1-.05-.19V16.39a1.48,1.48,0,0,0-.43-1.05l-.7-.7A1.49,1.49,0,0,0,9.69,16a.43.43,0,0,1-.17.43.44.44,0,0,1-.47,0l-.86-.58A.42.42,0,0,1,8,15.49V14a1.58,1.58,0,0,0,0-.38L6.72,9A22.78,22.78,0,0,1,33.88,3.34l-1,2.24a1.47,1.47,0,0,0,.3,1.66l1.11,1.12a.42.42,0,0,1,0,.53L32.78,11.2a1.49,1.49,0,0,0-.25.82v6.23a.41.41,0,0,1-.41.42h-.79a.43.43,0,0,1-.3-.13L28.39,15.9a1.47,1.47,0,0,0-1.05-.43H20.78a1.48,1.48,0,0,0-1.24.66l-1.42,2.13a1.49,1.49,0,0,0,.19,1.87l1.14,1.14a1.5,1.5,0,0,0,1.6.33l3.81-1.53a.42.42,0,0,1,.33,0,.39.39,0,0,1,.22.25l.7,2.09a.32.32,0,0,1,0,.13v2.1a1.49,1.49,0,0,0,1.49,1.48h2.15a.43.43,0,0,1,.33.16.39.39,0,0,1,.08.34l-.82,4.1a1.53,1.53,0,0,0,0,.3v.72A1.47,1.47,0,0,0,30,33a1.49,1.49,0,0,0,1.34.21l1.8-.6a.31.31,0,0,1,.13,0h4a.31.31,0,0,1,.13,0l2.91,1,.12.06,3.2,2.35A22.9,22.9,0,0,1,25.24,46.87ZM44.1,35,41,32.72a1.59,1.59,0,0,0-.41-.21l-2.91-1a1.53,1.53,0,0,0-.47-.07h-4a1.53,1.53,0,0,0-.47.07l-1.8.6a.46.46,0,0,1-.38,0,.42.42,0,0,1-.17-.34v-.81l.82-4.1a1.48,1.48,0,0,0-.31-1.23,1.46,1.46,0,0,0-1.15-.54H27.62a.42.42,0,0,1-.42-.42v-2.1a1.55,1.55,0,0,0-.08-.47L26.42,20a1.45,1.45,0,0,0-.78-.88,1.49,1.49,0,0,0-1.17,0l-3.82,1.53a.42.42,0,0,1-.45-.1l-1.14-1.14a.41.41,0,0,1,0-.52l1.42-2.13a.42.42,0,0,1,.35-.19h6.56a.43.43,0,0,1,.3.13l2.64,2.64a1.47,1.47,0,0,0,1,.43h.79a1.48,1.48,0,0,0,1.48-1.48V12a.39.39,0,0,1,.07-.23l1.54-2.31A1.51,1.51,0,0,0,35,7.6L33.91,6.49A.41.41,0,0,1,33.83,6l1-2.22A22.91,22.91,0,0,1,44.1,35Z"/></svg>