<svg height="27" viewBox="0 0 18 27" width="18" xmlns="http://www.w3.org/2000/svg"><g fill="none"><path d="m9 0c-4.957031 0-9 4.042969-9 9 0 1.40625.570313 3.019531 1.34375 4.78125.773438 1.761719 1.769531 3.632813 2.78125 5.375 2.023438 3.488281 4.0625 6.40625 4.0625 6.40625l.8125 1.1875.8125-1.1875s2.039063-2.917969 4.0625-6.40625c1.011719-1.742187 2.007813-3.613281 2.78125-5.375.773438-1.761719 1.34375-3.375 1.34375-4.78125 0-4.957031-4.042969-9-9-9zm0 2c3.878906 0 7 3.121094 7 7 0 .800781-.429687 2.316406-1.15625 3.96875-.726562 1.652344-1.730469 3.484375-2.71875 5.1875-1.570312 2.710938-2.546875 4.144531-3.125 5-.578125-.855469-1.554687-2.289062-3.125-5-.988281-1.703125-1.992187-3.535156-2.71875-5.1875-.726562-1.652344-1.15625-3.167969-1.15625-3.96875 0-3.878906 3.121094-7 7-7z" fill="#00bfbc"/><path d="m9 7c-1.105469 0-2 .894531-2 2s.894531 2 2 2 2-.894531 2-2-.894531-2-2-2z" fill="#335d9c"/></g></svg>