<?xml version="1.0"?>
<svg xmlns="http://www.w3.org/2000/svg" xmlns:xlink="http://www.w3.org/1999/xlink" version="1.1" viewBox="0 0 224 224" width="50px" height="50px"><g fill="none" fill-rule="nonzero" stroke="none" stroke-width="1" stroke-linecap="butt" stroke-linejoin="miter" stroke-miterlimit="10" stroke-dasharray="" stroke-dashoffset="0" font-family="none" font-weight="none" font-size="none" text-anchor="none" style="mix-blend-mode: normal"><path d="M0,224v-224h224v224z" fill="none"/><g fill="#ffffff"><g id="surface1"><path d="M0,31.36v161.28h224v-161.28zM8.96,40.32h206.08v11.2c-1.75,1.5225 -80.3075,70.0525 -87.64,76.44l-0.42,0.42c-5.81,5.0575 -11.76,6.02 -14.98,6.02c-3.2025,0 -9.17,-0.9625 -14.98,-6.02c-1.6625,-1.4525 -13.6325,-11.795 -22.26,-19.32c-25.6025,-22.33 -64.4875,-56.385 -65.8,-57.54zM8.96,63.42c7.77,6.7725 35.3325,30.765 58.8,51.24l-58.8,46.48zM215.04,63.42v97.72l-58.8,-46.48c23.4675,-20.475 51.03,-44.4675 58.8,-51.24zM74.62,120.68c5.4425,4.7425 15.2775,13.335 16.52,14.42l0.14,0.14c7.5775,6.51 15.6275,8.12 20.72,8.12c5.1275,0 13.2475,-1.6275 20.86,-8.26c1.26,-1.085 11.165,-9.625 16.66,-14.42l65.52,51.8v11.2h-206.08v-11.2z"/></g></g></g></svg>
