<?xml version="1.0"?>
<svg xmlns="http://www.w3.org/2000/svg" xmlns:xlink="http://www.w3.org/1999/xlink" version="1.1" viewBox="0 0 224 224" width="24px" height="24px"><g fill="none" fill-rule="nonzero" stroke="none" stroke-width="1" stroke-linecap="butt" stroke-linejoin="miter" stroke-miterlimit="10" stroke-dasharray="" stroke-dashoffset="0" font-family="none" font-weight="none" font-size="none" text-anchor="none" style="mix-blend-mode: normal"><path d="M0,224v-224h224v224z" fill="none"/><g fill="#ffffff"><path d="M177.33333,28h-130.66667c-10.31333,0 -18.66667,8.35333 -18.66667,18.66667v130.66667c0,10.31333 8.35333,18.66667 18.66667,18.66667h71.12933v-64.96933h-21.868v-25.43333h21.868v-18.71333c0,-21.69067 13.26267,-33.516 32.62,-33.516c6.524,-0.01867 13.03867,0.31733 19.52533,0.98v22.68h-13.328c-10.54667,0 -12.6,4.984 -12.6,12.33867v16.19333h25.2l-3.276,25.43333h-22.07333v65.00667h33.46933c10.31333,0 18.66667,-8.35333 18.66667,-18.66667v-130.66667c0,-10.31333 -8.35333,-18.66667 -18.66667,-18.66667z"/></g></g></svg>
