<?xml version="1.0"?>
<svg xmlns="http://www.w3.org/2000/svg" xmlns:xlink="http://www.w3.org/1999/xlink" version="1.1" viewBox="0 0 224 224" width="24px" height="24px"><g fill="none" fill-rule="nonzero" stroke="none" stroke-width="1" stroke-linecap="butt" stroke-linejoin="miter" stroke-miterlimit="10" stroke-dasharray="" stroke-dashoffset="0" font-family="none" font-weight="none" font-size="none" text-anchor="none" style="mix-blend-mode: normal"><path d="M0,224v-224h224v224z" fill="none"/><g fill="#ffffff"><path d="M117.08667,95.564v35.66267h50.82c-6.64533,21.60667 -24.70533,37.072 -50.82,37.072c-31.09867,0 -56.308,-25.20933 -56.308,-56.29867c0,-31.08933 25.20933,-56.29867 56.308,-56.29867c13.98133,0 26.74933,5.124 36.596,13.56133l26.264,-26.264c-16.58533,-15.11067 -38.64933,-24.332 -62.86,-24.332c-51.55733,0 -93.352,41.78533 -93.352,93.33333c0,51.548 41.79467,93.33333 93.352,93.33333c78.36267,0 95.65733,-73.26667 87.976,-109.648z"/></g></g></svg>
